<svg width="64" height="64" xmlns="http://www.w3.org/2000/svg" xmlns:xlink="http://www.w3.org/1999/xlink"><defs><linearGradient x1="99.866%" y1="41.208%" x2="80.655%" y2="41.208%" id="a"><stop stop-color="#EB9000" offset="0%"/><stop stop-color="#EB7E00" offset="100%"/></linearGradient><linearGradient x1="66.778%" y1="0%" x2="11.925%" y2="99.452%" id="b"><stop stop-color="#FFCD00" offset="0%"/><stop stop-color="#FFAB00" offset="99.931%"/></linearGradient><filter x="-5.1%" y="-4.4%" width="110.1%" height="108.9%" filterUnits="objectBoundingBox" id="d"><feGaussianBlur stdDeviation="1" in="SourceAlpha" result="shadowBlurInner1"/><feOffset dx="2" in="shadowBlurInner1" result="shadowOffsetInner1"/><feComposite in="shadowOffsetInner1" in2="SourceAlpha" operator="arithmetic" k2="-1" k3="1" result="shadowInnerInner1"/><feColorMatrix values="0 0 0 0 1 0 0 0 0 1 0 0 0 0 1 0 0 0 0.24 0" in="shadowInnerInner1"/></filter><filter x="-18.4%" y="-11.8%" width="136.8%" height="147.1%" filterUnits="objectBoundingBox" id="e"><feOffset dy="2" in="SourceAlpha" result="shadowOffsetOuter1"/><feGaussianBlur stdDeviation="1" in="shadowOffsetOuter1" result="shadowBlurOuter1"/><feColorMatrix values="0 0 0 0 0.510161911 0 0 0 0 0.26330308 0 0 0 0 0 0 0 0 0.207359047 0" in="shadowBlurOuter1"/></filter><path d="M34.036 0a3 3 0 0 1 3 3l-.002 38.894-.002.106a3.001 3.001 0 0 0 2.392 2.938V45H3a3 3 0 0 1-3-3V3a3 3 0 0 1 3-3h31.036Z" id="c"/><path d="m16.985 34.22-3.182-3.181-4.773-4.773 3.182-3.182 4.772 4.772L27.59 17.25l3.182 3.182-13.788 13.789Z" id="f"/></defs><g fill="none" fill-rule="evenodd"><path d="M10.5 11.043H41a3 3 0 0 1 3 3V42a3 3 0 0 1-3 3H10.5a3 3 0 0 1-3-3V14.043a3 3 0 0 1 3-3Z" fill="url(#a)" transform="translate(10 10)"/><g transform="translate(10 10)"><use fill="url(#b)" xlink:href="#c"/><use fill="#000" filter="url(#d)" xlink:href="#c"/></g><g transform="translate(10 10)"><use fill="#000" filter="url(#e)" xlink:href="#f"/><use fill="#FFFBE0" xlink:href="#f"/></g></g></svg>