<?xml version="1.0" encoding="UTF-8"?>
<svg width="64px" height="64px" viewBox="0 0 64 64" version="1.1" xmlns="http://www.w3.org/2000/svg" xmlns:xlink="http://www.w3.org/1999/xlink">
    <title>file_mindmap_64</title>
    <defs>
        <linearGradient x1="100%" y1="50%" x2="79.6270631%" y2="50%" id="linearGradient-1">
            <stop stop-color="#A55BF5" offset="0.0628277972%"></stop>
            <stop stop-color="#833FDF" offset="100%"></stop>
        </linearGradient>
        <path d="M10.1881676,11.0053711 L41.3031321,11.0053711 C42.7925711,11.0053711 44,12.2128 44,13.702239 L44,42.3031321 C44,43.7925711 42.7925711,45 41.3031321,45 L10.1881676,45 C8.69872859,45 7.49129971,43.7925711 7.49129971,42.3031321 L7.49129971,13.702239 C7.49129971,12.2128 8.69872859,11.0053711 10.1881676,11.0053711 Z" id="path-2"></path>
        <filter x="-5.5%" y="-5.9%" width="111.0%" height="111.8%" filterUnits="objectBoundingBox" id="filter-3">
            <feGaussianBlur stdDeviation="1" in="SourceAlpha" result="shadowBlurInner1"></feGaussianBlur>
            <feOffset dx="2" dy="0" in="shadowBlurInner1" result="shadowOffsetInner1"></feOffset>
            <feComposite in="shadowOffsetInner1" in2="SourceAlpha" operator="arithmetic" k2="-1" k3="1" result="shadowInnerInner1"></feComposite>
            <feColorMatrix values="0 0 0 0 1   0 0 0 0 1   0 0 0 0 1  0 0 0 0.24 0" type="matrix" in="shadowInnerInner1"></feColorMatrix>
        </filter>
        <linearGradient x1="66.3538617%" y1="0%" x2="35.5882624%" y2="100%" id="linearGradient-4">
            <stop stop-color="#C87FFA" offset="0%"></stop>
            <stop stop-color="#A55BF5" offset="100%"></stop>
        </linearGradient>
        <path d="M34.3648997,0 C35.8543387,0 37.0617676,1.20742888 37.0617676,2.69686789 L37.061,42.003 L37.1256885,42.0032213 C37.1190876,42.0844027 37.1157227,42.1664993 37.1157227,42.2493818 C37.1157227,43.4819696 37.8599308,44.5407384 38.9235233,45.0008643 L2.69686789,45 C1.20742888,45 0,43.7925711 0,42.3031321 L0,2.69686789 C0,1.20742888 1.20742888,0 2.69686789,0 L34.3648997,0 Z" id="path-5"></path>
        <filter x="-3.9%" y="-3.3%" width="107.7%" height="106.7%" filterUnits="objectBoundingBox" id="filter-6">
            <feGaussianBlur stdDeviation="1" in="SourceAlpha" result="shadowBlurInner1"></feGaussianBlur>
            <feOffset dx="1" dy="1" in="shadowBlurInner1" result="shadowOffsetInner1"></feOffset>
            <feComposite in="shadowOffsetInner1" in2="SourceAlpha" operator="arithmetic" k2="-1" k3="1" result="shadowInnerInner1"></feComposite>
            <feColorMatrix values="0 0 0 0 1   0 0 0 0 1   0 0 0 0 1  0 0 0 0.24 0" type="matrix" in="shadowInnerInner1"></feColorMatrix>
        </filter>
        <path d="M21.0992111,3.692228 L11.9419391,3.692228 C7.97979782,3.692228 4.7678477,6.90417812 4.7678477,10.8663194 C4.7678477,14.8284607 7.97979782,18.0404108 11.9419391,18.0404108 L21.0992111,18.0404108 L21.0992111,18.0404108" id="path-7"></path>
        <filter x="-23.8%" y="-34.0%" width="172.1%" height="182.0%" filterUnits="objectBoundingBox" id="filter-8">
            <feMorphology radius="1.8852459" operator="dilate" in="SourceAlpha" result="shadowSpreadOuter1"></feMorphology>
            <feOffset dx="2" dy="1" in="shadowSpreadOuter1" result="shadowOffsetOuter1"></feOffset>
            <feMorphology radius="1.8852459" operator="erode" in="SourceAlpha" result="shadowInner"></feMorphology>
            <feOffset dx="2" dy="1" in="shadowInner" result="shadowInner"></feOffset>
            <feComposite in="shadowOffsetOuter1" in2="shadowInner" operator="out" result="shadowOffsetOuter1"></feComposite>
            <feGaussianBlur stdDeviation="1" in="shadowOffsetOuter1" result="shadowBlurOuter1"></feGaussianBlur>
            <feColorMatrix values="0 0 0 0 0.537254902   0 0 0 0 0.329411765   0 0 0 0 0.729411765  0 0 0 0.675289554 0" type="matrix" in="shadowBlurOuter1"></feColorMatrix>
        </filter>
        <path d="M4.7678477,5.83110271 C7.26670985,5.83110271 9.29243786,7.85683073 9.29243786,10.3556929 C9.29243786,12.854555 7.26670985,14.880283 4.7678477,14.880283 C2.26898555,14.880283 0.243257536,12.854555 0.243257536,10.3556929 C0.243257536,7.85683073 2.26898555,5.83110271 4.7678477,5.83110271 Z" id="path-9"></path>
        <filter x="-22.1%" y="-22.1%" width="188.4%" height="188.4%" filterUnits="objectBoundingBox" id="filter-10">
            <feOffset dx="2" dy="2" in="SourceAlpha" result="shadowOffsetOuter1"></feOffset>
            <feGaussianBlur stdDeviation="1" in="shadowOffsetOuter1" result="shadowBlurOuter1"></feGaussianBlur>
            <feColorMatrix values="0 0 0 0 0   0 0 0 0 0   0 0 0 0 0  0 0 0 0.122760052 0" type="matrix" in="shadowBlurOuter1"></feColorMatrix>
        </filter>
        <path d="M19.6191779,0.651244146 L20.2628747,0.651244146 C21.7510309,0.651244146 22.9574198,1.85763304 22.9574198,3.34578916 L22.9574198,3.98948602 C22.9574198,5.47764214 21.7510309,6.68403103 20.2628747,6.68403103 L19.6191779,6.68403103 C18.1310218,6.68403103 16.9246329,5.47764214 16.9246329,3.98948602 L16.9246329,3.34578916 C16.9246329,1.85763304 18.1310218,0.651244146 19.6191779,0.651244146 Z" id="path-11"></path>
        <filter x="-33.2%" y="-33.2%" width="232.6%" height="232.6%" filterUnits="objectBoundingBox" id="filter-12">
            <feOffset dx="2" dy="2" in="SourceAlpha" result="shadowOffsetOuter1"></feOffset>
            <feGaussianBlur stdDeviation="1" in="shadowOffsetOuter1" result="shadowBlurOuter1"></feGaussianBlur>
            <feColorMatrix values="0 0 0 0 0   0 0 0 0 0   0 0 0 0 0  0 0 0 0.122760052 0" type="matrix" in="shadowBlurOuter1"></feColorMatrix>
        </filter>
        <path d="M19.6191779,14.9389077 L20.2628747,14.9389077 C21.7510309,14.9389077 22.9574198,16.1452966 22.9574198,17.6334528 L22.9574198,18.2771496 C22.9574198,19.7653057 21.7510309,20.9716946 20.2628747,20.9716946 L19.6191779,20.9716946 C18.1310218,20.9716946 16.9246329,19.7653057 16.9246329,18.2771496 L16.9246329,17.6334528 C16.9246329,16.1452966 18.1310218,14.9389077 19.6191779,14.9389077 Z" id="path-13"></path>
        <filter x="-33.2%" y="-33.2%" width="232.6%" height="232.6%" filterUnits="objectBoundingBox" id="filter-14">
            <feOffset dx="2" dy="2" in="SourceAlpha" result="shadowOffsetOuter1"></feOffset>
            <feGaussianBlur stdDeviation="1" in="shadowOffsetOuter1" result="shadowBlurOuter1"></feGaussianBlur>
            <feColorMatrix values="0 0 0 0 0   0 0 0 0 0   0 0 0 0 0  0 0 0 0.122760052 0" type="matrix" in="shadowBlurOuter1"></feColorMatrix>
        </filter>
    </defs>
    <g id="品类图标库" stroke="none" stroke-width="1" fill="none" fill-rule="evenodd">
        <g id="腾讯文档品类图标切图库" transform="translate(-533.000000, -1343.000000)">
            <g id="file_mindmap_64" transform="translate(533.000000, 1343.000000)">
                <rect id="矩形" fill="#FFFFFF" opacity="0" x="0" y="0" width="64" height="64"></rect>
                <g id="icon/文件/创建/思维导图" transform="translate(10.000000, 10.000000)">
                    <g id="背景板">
                        <use fill="url(#linearGradient-1)" fill-rule="evenodd" xlink:href="#path-2"></use>
                        <use fill="black" fill-opacity="1" filter="url(#filter-3)" xlink:href="#path-2"></use>
                    </g>
                    <g id="前景板">
                        <use fill="url(#linearGradient-4)" fill-rule="evenodd" xlink:href="#path-5"></use>
                        <use fill="black" fill-opacity="1" filter="url(#filter-6)" xlink:href="#path-5"></use>
                    </g>
                    <g id="图形" transform="translate(7.297726, 15.942725)">
                        <g id="路径">
                            <use fill="black" fill-opacity="1" filter="url(#filter-8)" xlink:href="#path-7"></use>
                            <use stroke="#E5D7FF" stroke-width="3.7704918" xlink:href="#path-7"></use>
                        </g>
                        <g id="矩形备份-4" transform="translate(4.767848, 10.355693) rotate(-360.000000) translate(-4.767848, -10.355693) ">
                            <use fill="black" fill-opacity="1" filter="url(#filter-10)" xlink:href="#path-9"></use>
                            <use fill="#FFFFFF" fill-rule="evenodd" xlink:href="#path-9"></use>
                        </g>
                        <g id="矩形备份-2" transform="translate(19.941026, 3.667638) rotate(-270.000000) translate(-19.941026, -3.667638) ">
                            <use fill="black" fill-opacity="1" filter="url(#filter-12)" xlink:href="#path-11"></use>
                            <use fill="#FFFFFF" fill-rule="evenodd" xlink:href="#path-11"></use>
                        </g>
                        <g id="矩形备份-6" transform="translate(19.941026, 17.955301) rotate(-270.000000) translate(-19.941026, -17.955301) ">
                            <use fill="black" fill-opacity="1" filter="url(#filter-14)" xlink:href="#path-13"></use>
                            <use fill="#FFFFFF" fill-rule="evenodd" xlink:href="#path-13"></use>
                        </g>
                    </g>
                </g>
            </g>
        </g>
    </g>
</svg>